<svg width="24" height="24" viewBox="0 0 24 24" fill="none" xmlns="http://www.w3.org/2000/svg">
<path d="M21.989 17.9419L15.2338 7.215V3.46875H16.7338V1.5H7.26509V3.46875H8.76509V7.215L2.00994 17.9419C1.40056 18.9094 1.31713 19.9917 1.86931 20.9934C2.4215 21.9952 3.35525 22.5 4.49947 22.5H19.4995C20.6437 22.5 21.577 21.9956 22.1292 20.9934C22.6813 19.9912 22.5998 18.9094 21.989 17.9419ZM10.5178 8.12766C10.6598 7.90336 10.735 7.64317 10.7343 7.37766V3.46875H13.2656V7.43391C13.2655 7.66324 13.3305 7.88788 13.4531 8.08172L16.7254 13.2656H7.27353L10.5178 8.12766Z" fill="#00EEFA" fill-opacity="0.85"/>
</svg>
