<svg width="24" height="24" viewBox="0 0 24 24" fill="none" xmlns="http://www.w3.org/2000/svg">
<path d="M3.00098 3H21.001C21.2662 3 21.5205 3.10536 21.7081 3.29289C21.8956 3.48043 22.001 3.73478 22.001 4V20C22.001 20.2652 21.8956 20.5196 21.7081 20.7071C21.5205 20.8946 21.2662 21 21.001 21H3.00098C2.73576 21 2.48141 20.8946 2.29387 20.7071C2.10633 20.5196 2.00098 20.2652 2.00098 20V4C2.00098 3.73478 2.10633 3.48043 2.29387 3.29289C2.48141 3.10536 2.73576 3 3.00098 3ZM15.001 7V9H11.001V11H15.001V13L18.501 10L15.001 7ZM9.00098 17V15H13.001V13H9.00098V11L5.50098 14L9.00098 17Z" fill="#00EEFA" fill-opacity="0.85"/>
</svg>
