<svg width="20" height="18" viewBox="0 0 20 18" fill="none" xmlns="http://www.w3.org/2000/svg">
<path d="M10.3537 16.5C9.17024 16.5032 8.00172 16.2466 6.93779 15.75C6.54841 15.5685 6.17533 15.3566 5.82237 15.1163L5.71513 15.0413C4.74438 14.3547 3.95071 13.4642 3.39505 12.438C2.82031 11.3759 2.52221 10.1964 2.52616 9C2.52616 4.85786 6.0307 1.5 10.3537 1.5C14.6767 1.5 18.1813 4.85786 18.1813 9C18.1852 10.1958 17.8874 11.3748 17.3132 12.4365C16.7583 13.4621 15.9657 14.3523 14.9962 15.039C14.6305 15.2955 14.2424 15.5213 13.8362 15.714L13.7736 15.744C12.7089 16.2433 11.539 16.5019 10.3537 16.5ZM10.3537 12.75C9.18074 12.7478 8.10539 13.3755 7.56947 14.3752C9.32392 15.2079 11.3835 15.2079 13.138 14.3752V14.3715C12.6014 13.3729 11.526 12.7466 10.3537 12.75ZM10.3537 11.25C12.0492 11.2521 13.6126 12.1276 14.4467 13.542L14.4585 13.5322L14.4694 13.5233L14.4561 13.5345L14.4483 13.5405C16.4279 11.9018 17.1357 9.25675 16.2233 6.90758C15.3109 4.55841 12.9705 3.00024 10.3545 3.00024C7.73847 3.00024 5.39811 4.55841 4.4857 6.90758C3.57329 9.25675 4.28113 11.9018 6.26071 13.5405C7.09532 12.1268 8.65856 11.252 10.3537 11.25ZM10.3537 10.5C8.62451 10.5 7.22271 9.15685 7.22271 7.5C7.22271 5.84315 8.62451 4.5 10.3537 4.5C12.0829 4.5 13.4847 5.84315 13.4847 7.5C13.4847 8.29565 13.1548 9.05871 12.5677 9.62132C11.9805 10.1839 11.1841 10.5 10.3537 10.5ZM10.3537 6C9.48911 6 8.78821 6.67157 8.78821 7.5C8.78821 8.32843 9.48911 9 10.3537 9C11.2183 9 11.9192 8.32843 11.9192 7.5C11.9192 6.67157 11.2183 6 10.3537 6Z" fill="#00EEFA" fill-opacity="0.85"/>
</svg>
