<?xml version="1.0" encoding="utf-8"?>
<!-- Generator: Adobe Illustrator 25.3.1, SVG Export Plug-In . SVG Version: 6.00 Build 0)  -->
<svg version="1.1" id="레이어_1" xmlns="http://www.w3.org/2000/svg" xmlns:xlink="http://www.w3.org/1999/xlink" x="0px"
	 y="0px" viewBox="0 0 27 27" style="enable-background:new 0 0 27 27;" xml:space="preserve">
<style type="text/css">
	.st0{fill:#FFFFFF;}
</style>
<path class="st0" d="M13.5,0.6C6,0.6,0,6.8,0,14.4c0,6.1,3.9,11.3,9.2,13.1c0.7,0.1,0.9-0.3,0.9-0.7v-2.6c-3.8,0.8-4.5-1.6-4.5-1.6
	c-0.6-1.6-1.5-2-1.5-2c-1.2-0.9,0.1-0.8,0.1-0.8c1.4,0.1,2.1,1.4,2.1,1.4c1.2,2.1,3.2,1.5,3.9,1.1c0.1-0.9,0.5-1.5,0.9-1.9
	c-3-0.4-6.2-1.5-6.2-6.8c0-1.5,0.5-2.7,1.4-3.7C6.1,9.7,5.7,8.3,6.4,6.3c0,0,1.1-0.4,3.7,1.4c1.1-0.3,2.2-0.5,3.4-0.5
	c1.1,0,2.3,0.2,3.4,0.5c2.6-1.8,3.7-1.4,3.7-1.4c0.7,1.9,0.3,3.3,0.1,3.7c0.9,1,1.4,2.2,1.4,3.7c0,5.3-3.2,6.5-6.2,6.8
	c0.5,0.4,0.9,1.3,0.9,2.6v3.8c0,0.4,0.2,0.8,0.9,0.7c5.4-1.8,9.2-7,9.2-13.1C27,6.8,21,0.6,13.5,0.6z"/>
</svg>
