<?xml version="1.0" encoding="utf-8"?>
<!-- Generator: Adobe Illustrator 25.3.1, SVG Export Plug-In . SVG Version: 6.00 Build 0)  -->
<svg version="1.1" id="레이어_1" xmlns="http://www.w3.org/2000/svg" xmlns:xlink="http://www.w3.org/1999/xlink" x="0px"
	 y="0px" viewBox="0 0 27 27" style="enable-background:new 0 0 27 27;" xml:space="preserve">
<style type="text/css">
	.st0{fill:#FFFFFF;}
</style>
<path class="st0" d="M13.5,0C6,0,0,6,0,13.5S6,27,13.5,27S27,21,27,13.5S21,0,13.5,0z M9.4,19.4C6.4,19.4,4,17,4,14
	c0-3,2.4-5.4,5.4-5.4c3,0,5.4,2.4,5.4,5.4C14.7,17,12.3,19.4,9.4,19.4z M17.9,19.1c-1.5,0-2.7-2.3-2.7-5.1c0-2.8,1.2-5.1,2.7-5.1
	c1.5,0,2.7,2.3,2.7,5.1C20.6,16.8,19.4,19.1,17.9,19.1z M22.1,18.5c-0.5,0-0.9-2-0.9-4.5c0-2.5,0.4-4.5,0.9-4.5c0.5,0,0.9,2,0.9,4.5
	C23,16.5,22.6,18.5,22.1,18.5z"/>
</svg>
