<svg width="193" height="40" viewBox="0 0 193 40" fill="none" xmlns="http://www.w3.org/2000/svg">
<path d="M49.984 15.928C52.12 15.928 52.864 16.72 52.864 18.472C52.864 20.2 52.024 20.992 50.008 20.992H47.176V15.928H49.984ZM50.32 23.248C53.704 23.248 55.552 21.184 55.552 18.448C55.552 15.232 53.8 13.6 50.224 13.6H44.44V28H47.176V23.248H50.32ZM57.8095 32.2C60.4015 32.2 61.7935 30.952 62.9455 28.144L67.6015 16.72H64.8415L63.6175 20.848C63.1855 22.24 62.6335 24.04 62.1295 25.72H61.7455C61.2655 24.088 60.6415 22.216 60.1855 20.8L58.8655 16.72H56.0335L60.5695 27.88C59.8255 29.584 59.1535 29.896 57.8815 29.896C57.4015 29.896 56.9215 29.824 56.4415 29.728L56.0335 32.056C56.5615 32.128 57.0655 32.2 57.8095 32.2ZM71.6174 12.592H69.0254V28H71.6174V12.592ZM79.4554 28.312C83.0314 28.312 85.1434 26.032 85.1434 22.336C85.1434 18.616 82.9114 16.432 79.4554 16.432C75.9514 16.432 73.7194 18.616 73.7194 22.336C73.7194 26.032 75.8314 28.312 79.4554 28.312ZM79.4314 18.616C81.5194 18.616 82.5754 19.984 82.5754 22.312C82.5754 24.64 81.5674 26.08 79.4314 26.08C77.2714 26.08 76.3114 24.64 76.3114 22.312C76.3114 19.984 77.3434 18.616 79.4314 18.616ZM89.7558 21.616C89.7558 19.912 90.9078 18.76 92.6358 18.76C94.1958 18.76 94.7958 19.768 94.7958 21.136V28H97.3638V20.464C97.3638 18.016 96.2358 16.432 93.8838 16.432C91.9878 16.432 90.5478 17.608 89.9238 19.696H89.7078V16.72H87.1878V28H89.7558V21.616ZM109.861 28.24C112.573 28.24 114.013 26.728 114.637 24.784H114.877V28H117.397V20.44H110.797V22.672H114.829C114.829 24.328 114.013 25.96 110.869 25.96C107.797 25.96 106.525 24.064 106.525 20.992C106.525 17.728 107.701 15.688 110.773 15.688C113.005 15.688 114.109 16.792 114.637 18.976L117.181 18.448C116.605 15.16 114.613 13.312 110.797 13.312C106.141 13.312 103.789 16.288 103.789 20.992C103.789 25.816 106.285 28.24 109.861 28.24ZM123.628 26.224C122.164 26.224 121.66 25.528 121.66 24.712C121.66 23.776 122.404 23.296 123.7 23.296H126.628V23.752C126.628 25.168 125.428 26.224 123.628 26.224ZM126.748 28H129.196V20.8C129.196 17.992 127.804 16.456 124.54 16.456C121.66 16.456 120.052 17.824 119.62 19.96L122.068 20.512C122.356 19.192 123.124 18.52 124.444 18.52C126.028 18.52 126.628 19.36 126.628 20.824V21.592H123.268C120.412 21.592 119.188 23.056 119.188 25.072C119.188 27.28 120.604 28.24 122.62 28.24C124.612 28.24 125.908 27.136 126.484 25.312H126.748V28ZM132.461 24.568C132.461 26.68 133.517 28.312 135.989 28.312C137.117 28.312 137.693 28.168 138.533 27.904L138.221 25.6C137.669 25.768 137.165 25.888 136.589 25.888C135.461 25.888 135.053 25.312 135.053 24.208V18.808H138.365V16.72H135.053V13.672H132.461V16.72H130.877V18.808H132.461V24.568ZM145.335 18.424C147.135 18.424 147.999 19.432 148.095 21.376H142.311C142.551 19.36 143.583 18.424 145.335 18.424ZM145.407 28.288C148.431 28.288 149.847 26.896 150.375 24.856L148.167 24.232C147.855 25.312 147.231 26.176 145.431 26.176C143.511 26.176 142.479 25.144 142.287 23.104H150.423C150.471 22.528 150.471 22.024 150.471 21.592C150.471 18.496 148.815 16.432 145.407 16.432C141.879 16.432 139.719 18.688 139.719 22.504C139.719 26.272 141.951 28.288 145.407 28.288ZM161.699 16.72H158.771L157.691 21.136C157.283 22.72 156.923 24.376 156.611 26.056H156.179C155.843 24.376 155.435 22.816 154.979 21.088L153.851 16.72H151.187L154.547 28H157.859L158.987 23.08C159.299 21.64 159.611 20.104 159.875 18.616H160.259C160.499 20.128 160.811 21.616 161.147 23.08L162.323 28H165.707L169.067 16.72H166.499L165.491 21.088C165.059 22.84 164.651 24.376 164.315 26.056H163.883C163.571 24.352 163.211 22.696 162.803 21.136L161.699 16.72ZM173.503 26.224C172.039 26.224 171.535 25.528 171.535 24.712C171.535 23.776 172.279 23.296 173.575 23.296H176.503V23.752C176.503 25.168 175.303 26.224 173.503 26.224ZM176.623 28H179.071V20.8C179.071 17.992 177.679 16.456 174.415 16.456C171.535 16.456 169.927 17.824 169.495 19.96L171.943 20.512C172.231 19.192 172.999 18.52 174.319 18.52C175.903 18.52 176.503 19.36 176.503 20.824V21.592H173.143C170.287 21.592 169.063 23.056 169.063 25.072C169.063 27.28 170.479 28.24 172.495 28.24C174.487 28.24 175.783 27.136 176.359 25.312H176.623V28ZM182.216 32.2C184.808 32.2 186.2 30.952 187.352 28.144L192.008 16.72H189.248L188.024 20.848C187.592 22.24 187.04 24.04 186.536 25.72H186.152C185.672 24.088 185.048 22.216 184.592 20.8L183.272 16.72H180.44L184.976 27.88C184.232 29.584 183.56 29.896 182.288 29.896C181.808 29.896 181.328 29.824 180.848 29.728L180.44 32.056C180.968 32.128 181.472 32.2 182.216 32.2Z" fill="white"/>
<path fill-rule="evenodd" clip-rule="evenodd" d="M7.35905 20.5498C9.61637 19.6742 12.7607 19.1245 16.2527 19.1245C19.7448 19.1245 22.8891 19.6742 25.1464 20.5498C26.2764 20.9881 27.1645 21.5005 27.7632 22.0496C28.3621 22.5988 28.6397 23.1527 28.6397 23.6867H29.4059C29.4059 22.8529 28.9688 22.1038 28.2753 21.4678C27.5816 20.8317 26.5995 20.2767 25.4186 19.8187C23.0541 18.9015 19.8134 18.3424 16.2527 18.3424C12.6921 18.3424 9.4514 18.9015 7.08688 19.8187C5.90597 20.2767 4.92385 20.8317 4.23021 21.4678C3.53671 22.1038 3.09961 22.8529 3.09961 23.6867H3.86581C3.86581 23.1527 4.14338 22.5988 4.74228 22.0496C5.34103 21.5005 6.22905 20.9881 7.35905 20.5498Z" fill="white"/>
<path fill-rule="evenodd" clip-rule="evenodd" d="M28.5759 23.7505H29.4697V23.6867C29.4697 22.8289 29.0198 22.064 28.3184 21.4208C27.6169 20.7775 26.6269 20.219 25.4417 19.7592C23.0681 18.8386 19.8192 18.2787 16.2528 18.2787C12.6863 18.2787 9.43741 18.8386 7.06383 19.7592C5.87859 20.219 4.88862 20.7775 4.18711 21.4208C3.48573 22.064 3.03583 22.8289 3.03583 23.6867V23.7505H3.92964V23.6867C3.92964 23.1767 4.19449 22.6385 4.78542 22.0966C5.37631 21.5548 6.25646 21.0459 7.38215 20.6093C9.63041 19.7372 12.7665 19.1884 16.2528 19.1884C19.739 19.1884 22.8751 19.7372 25.1234 20.6093C26.2491 21.0459 27.1292 21.5548 27.7201 22.0966C28.311 22.6385 28.5759 23.1767 28.5759 23.6867V23.7505ZM29.405 23.6229C29.3834 22.8147 28.9511 22.0875 28.2753 21.4678C27.5817 20.8317 26.5995 20.2768 25.4186 19.8187C23.0541 18.9016 19.8134 18.3425 16.2528 18.3425C12.6921 18.3425 9.45143 18.9016 7.0869 19.8187C5.90599 20.2768 4.92388 20.8317 4.23023 21.4678C3.55447 22.0875 3.12215 22.8147 3.10049 23.6229C3.09992 23.6442 3.09963 23.6654 3.09963 23.6867H3.86583C3.86583 23.1528 4.1434 22.5988 4.7423 22.0496C5.34105 21.5005 6.22907 20.9881 7.35907 20.5498C9.6164 19.6743 12.7607 19.1246 16.2528 19.1246C19.7448 19.1246 22.8891 19.6743 25.1465 20.5498C26.2765 20.9881 27.1645 21.5005 27.7632 22.0496C28.3621 22.5988 28.6397 23.1528 28.6397 23.6867H29.4059C29.4059 23.6654 29.4056 23.6442 29.405 23.6229Z" fill="white"/>
<path fill-rule="evenodd" clip-rule="evenodd" d="M7.35905 24.4007C9.61637 25.2763 12.7607 25.826 16.2527 25.826C19.7448 25.826 22.8891 25.2763 25.1464 24.4007C26.2764 23.9624 27.1645 23.45 27.7632 22.9009C28.3621 22.3517 28.6397 21.7978 28.6397 21.2638H29.4059C29.4059 22.0976 28.9688 22.8467 28.2753 23.4827C27.5816 24.1188 26.5995 24.6738 25.4186 25.1318C23.0541 26.049 19.8134 26.6081 16.2527 26.6081C12.6921 26.6081 9.4514 26.049 7.08688 25.1318C5.90597 24.6738 4.92385 24.1188 4.23021 23.4827C3.53671 22.8467 3.09961 22.0976 3.09961 21.2638H3.86581C3.86581 21.7978 4.14338 22.3517 4.74228 22.9009C5.34103 23.45 6.22905 23.9624 7.35905 24.4007Z" fill="white"/>
<path fill-rule="evenodd" clip-rule="evenodd" d="M28.4163 21.0405H29.6292V21.2638C29.6292 22.1816 29.1473 22.9861 28.4262 23.6473C27.705 24.3087 26.6954 24.8761 25.4993 25.34C23.1031 26.2695 19.8338 26.8314 16.2527 26.8314C12.6717 26.8314 9.40233 26.2695 7.00611 25.34C5.81006 24.8761 4.80045 24.3087 4.07926 23.6473C3.3582 22.9861 2.87628 22.1816 2.87628 21.2638V21.0405H4.08911V21.2638C4.08911 21.7142 4.32219 22.2127 4.89319 22.7364C5.4644 23.2602 6.32492 23.7601 7.43979 24.1926C9.66542 25.0558 12.7811 25.6027 16.2527 25.6027C19.7244 25.6027 22.84 25.0558 25.0657 24.1926C26.1805 23.7601 27.0411 23.2602 27.6123 22.7364C28.1833 22.2127 28.4163 21.7142 28.4163 21.2638V21.0405ZM29.3953 21.4872C29.325 22.2318 28.9063 22.9041 28.2753 23.4828C27.5816 24.1189 26.5995 24.6738 25.4186 25.1318C23.0541 26.049 19.8133 26.6081 16.2527 26.6081C12.6921 26.6081 9.45139 26.049 7.08687 25.1318C5.90595 24.6738 4.92384 24.1189 4.2302 23.4828C3.59918 22.9041 3.18045 22.2318 3.11011 21.4872C3.10314 21.4134 3.09959 21.339 3.09959 21.2638H3.8658C3.8658 21.7978 4.14336 22.3518 4.74226 22.901C5.34102 23.4501 6.22903 23.9625 7.35904 24.4008C9.61636 25.2763 12.7607 25.826 16.2527 25.826C19.7448 25.826 22.8891 25.2763 25.1464 24.4008C26.2764 23.9625 27.1644 23.4501 27.7632 22.901C28.3621 22.3518 28.6397 21.7978 28.6397 21.2638H29.4059C29.4059 21.339 29.4023 21.4134 29.3953 21.4872Z" fill="white"/>
<path d="M15.9725 2.98712C16.0312 2.81378 16.2764 2.81378 16.3351 2.98712L24.0346 25.7175C24.054 25.7747 24.0452 25.8377 24.011 25.8875L16.3114 37.06C16.2353 37.1704 16.0723 37.1704 15.9962 37.06L8.29662 25.8875C8.26233 25.8377 8.25355 25.7747 8.27294 25.7175L15.9725 2.98712Z" fill="white"/>
<path d="M5.46233 14.9928C5.437 14.806 5.18521 14.7645 5.10125 14.9333L0.734302 23.7173C0.700597 23.7851 0.710022 23.8664 0.758344 23.9247L5.13035 29.1982C5.23174 29.3205 5.42939 29.2732 5.46441 29.1183L6.65221 23.8625C6.65725 23.8402 6.65825 23.8172 6.65519 23.7946L5.46233 14.9928Z" fill="white"/>
<path d="M26.9589 14.9928C26.9842 14.806 27.236 14.7645 27.32 14.9333L31.6869 23.7173C31.7206 23.7851 31.7112 23.8664 31.6629 23.9247L27.2909 29.1982C27.1895 29.3205 26.9918 29.2732 26.9568 29.1183L25.769 23.8625C25.764 23.8402 25.7629 23.8172 25.766 23.7946L26.9589 14.9928Z" fill="white"/>
</svg>
